<svg width="65" height="65" viewBox="0 0 65 65" fill="none" xmlns="http://www.w3.org/2000/svg">
<circle cx="32.5" cy="32.5" r="32.5" fill="#1A65AF"/>
<path d="M39.0653 33.3686L39.0653 33.3687C39.0101 34.4972 38.7445 35.571 38.3471 36.3691L39.3078 37.3297C39.7231 37.745 39.7232 38.4193 39.3082 38.8349C39.308 38.835 39.3079 38.8352 39.3078 38.8353L39.2194 38.7469C39.0376 38.9318 38.7963 39.0227 38.555 39.0227C38.3136 39.0227 38.0754 38.9318 37.8905 38.7469L39.0653 33.3686ZM39.0653 33.3686C39.1189 32.2587 39.0058 30.1516 37.5778 28.7236L37.5777 28.7235C37.0553 28.2019 36.2128 27.7197 35.2341 27.3097C34.2527 26.8987 33.1233 26.5557 32.0174 26.3173C30.912 26.079 29.8254 25.9442 28.9298 25.9518C28.4822 25.9556 28.0784 25.9951 27.7423 26.0768C27.4081 26.1581 27.1287 26.2841 26.9426 26.4702C26.7527 26.6602 26.622 26.9412 26.5364 27.277C26.4504 27.6143 26.4071 28.0178 26.4 28.4644C26.3859 29.3577 26.5163 30.4381 26.7533 31.5379C26.9904 32.6382 27.3351 33.7624 27.752 34.7437C28.168 35.7226 28.6599 36.5692 29.196 37.1053C30.4541 38.3634 32.2421 38.5992 33.4088 38.5992C33.5664 38.5992 33.7166 38.5961 33.8521 38.5865M39.0653 33.3686L36.8411 37.8743C36.0438 38.2655 34.9739 38.5281 33.8521 38.5865M33.8521 38.5865C33.8517 38.5865 33.8513 38.5865 33.8509 38.5865L33.8445 38.4617L33.8534 38.5864C33.853 38.5864 33.8525 38.5865 33.8521 38.5865ZM47.2866 20.0747L47.2867 20.074L47.2865 20.074L47.2859 20.0739L47.2839 20.0734L47.2773 20.072L47.2542 20.0669L47.1706 20.048C47.0987 20.0315 46.9953 20.0074 46.8636 19.9755C46.6003 19.9119 46.2242 19.8176 45.7624 19.6926C44.8388 19.4426 43.5731 19.0703 42.1822 18.5763C39.3955 17.5864 36.1248 16.1143 34.0876 14.1702C33.679 13.7794 33.0365 13.7763 32.6216 14.1628L32.6212 14.1631C30.6391 16.0243 27.1903 17.5592 24.208 18.6336C22.7198 19.1698 21.3532 19.5894 20.3523 19.8763C19.8519 20.0198 19.4431 20.13 19.1564 20.2051C19.013 20.2426 18.9003 20.2713 18.8218 20.291C18.7826 20.3008 18.752 20.3083 18.7306 20.3136L18.7054 20.3197L18.6982 20.3214C18.6969 20.3217 18.6962 20.3219 18.696 20.3219C18.6959 20.3219 18.6959 20.3219 18.6959 20.3219L18.6959 20.3219L18.6935 20.3225C18.189 20.4433 17.8451 20.9119 17.877 21.4295L17.8771 21.4301L18.8737 36.4892L18.8737 36.4892L18.874 36.4925C18.9224 37.0156 19.141 37.6095 19.4814 38.247C19.8225 38.8859 20.2902 39.5764 20.8451 40.2941C21.9549 41.7295 23.4204 43.2828 24.9396 44.7633C27.9783 47.7248 31.242 50.4049 32.3306 51.2833L32.331 51.2836C32.5253 51.439 32.7627 51.521 32.9983 51.521C33.2318 51.521 33.4632 51.4465 33.6557 51.2933C34.3255 50.7682 37.5957 48.1755 40.7439 45.1653C42.3182 43.66 43.8648 42.0478 45.0409 40.5356C45.6289 39.7795 46.1262 39.0461 46.488 38.3618C46.8492 37.6788 47.0796 37.0371 47.1258 36.466L47.126 36.4641L48.1226 21.1858C48.1226 21.1858 48.1226 21.1858 48.1226 21.1857L48.1226 21.1855L47.9979 21.1774L47.2866 20.0747ZM45.942 21.9472L45.0058 36.308L45.0056 36.308C44.9817 36.6046 44.8565 36.9698 44.6365 37.3945C44.4174 37.8176 44.1085 38.2918 43.726 38.8045C42.9611 39.83 41.9084 41.0012 40.7092 42.215C38.3375 44.6158 35.402 47.1743 33.0119 49.0882C30.6228 47.123 27.6857 44.517 25.3105 42.1066C24.1098 40.8881 23.0548 39.7217 22.2873 38.7149C21.9035 38.2115 21.5932 37.7501 21.3727 37.3437C21.1515 36.9361 21.0258 36.5932 21.0004 36.3237L20.0639 22.1743C21.2783 21.8495 23.5967 21.1812 26.1004 20.2103C28.6374 19.2265 31.3748 17.9281 33.345 16.3556C35.3038 17.9667 37.8944 19.2242 40.2769 20.15C42.6234 21.0617 44.7764 21.6547 45.942 21.9472ZM36.0784 30.2323C36.6564 30.8103 36.9802 31.8306 36.9517 33.0763L36.9474 33.0741L36.9383 33.2658C36.9119 33.8188 36.818 34.3176 36.7029 34.7249L34.2525 32.2745C33.837 31.859 33.1624 31.859 32.7469 32.2745C32.3314 32.6899 32.3314 33.3646 32.7469 33.7801L35.1975 36.2307C34.7941 36.3448 34.3004 36.4364 33.7476 36.4627L33.7472 36.4627C32.4109 36.5308 31.312 36.2069 30.7079 35.6028C30.3521 35.247 30.024 34.6746 29.7352 33.9844C29.4474 33.2968 29.203 32.5028 29.0102 31.7134C28.8174 30.9243 28.6766 30.1422 28.5955 29.4794C28.522 28.879 28.4985 28.3853 28.526 28.0736C28.8486 28.0478 29.3513 28.072 29.9579 28.1451C30.6259 28.2255 31.4101 28.364 32.1996 28.5539C32.9894 28.7438 33.782 28.9846 34.4676 29.2689C35.1557 29.5542 35.7251 29.879 36.0784 30.2323Z" fill="white" stroke="white" stroke-width="0.25"/>
</svg>
