<svg width="65" height="65" viewBox="0 0 65 65" fill="none" xmlns="http://www.w3.org/2000/svg">
<circle cx="32.5" cy="32.5" r="32.5" fill="#1A65AF"/>
<path fill-rule="evenodd" clip-rule="evenodd" d="M19.25 21.75C19.25 21.0596 19.8096 20.5 20.5 20.5H28C29.6576 20.5 31.2473 21.1585 32.4194 22.3306C32.6298 22.5409 32.8236 22.7647 33 23C33.1764 22.7647 33.3702 22.5409 33.5806 22.3306C34.7527 21.1585 36.3424 20.5 38 20.5H45.5C46.1904 20.5 46.75 21.0596 46.75 21.75V40.5C46.75 41.1904 46.1904 41.75 45.5 41.75H36.75C36.087 41.75 35.4511 42.0134 34.9822 42.4822C34.5134 42.9511 34.25 43.587 34.25 44.25C34.25 44.9404 33.6904 45.5 33 45.5C32.3096 45.5 31.75 44.9404 31.75 44.25C31.75 43.587 31.4866 42.9511 31.0178 42.4822C30.5489 42.0134 29.913 41.75 29.25 41.75H20.5C19.8096 41.75 19.25 41.1904 19.25 40.5V21.75ZM31.75 39.9199C30.9964 39.4848 30.1353 39.25 29.25 39.25H21.75V23H28C28.9946 23 29.9484 23.3951 30.6517 24.0983C31.3549 24.8016 31.75 25.7554 31.75 26.75V39.9199ZM34.25 39.9199C35.0036 39.4848 35.8647 39.25 36.75 39.25H44.25V23H38C37.0054 23 36.0516 23.3951 35.3483 24.0983C34.6451 24.8016 34.25 25.7554 34.25 26.75V39.9199Z" fill="white"/>
</svg>
