<svg width="65" height="65" viewBox="0 0 65 65" fill="none" xmlns="http://www.w3.org/2000/svg">
<circle cx="32.5" cy="32.5" r="32.5" fill="#1A65AF"/>
<path fill-rule="evenodd" clip-rule="evenodd" d="M32.9998 18C24.7156 18 17.9998 24.7157 17.9998 33C17.9998 41.2843 24.7156 48 32.9998 48C41.2841 48 47.9998 41.2843 47.9998 33C47.9998 24.7157 41.2841 18 32.9998 18ZM14.6665 33C14.6665 22.8748 22.8746 14.6667 32.9998 14.6667C43.1251 14.6667 51.3332 22.8748 51.3332 33C51.3332 43.1252 43.1251 51.3333 32.9998 51.3333C22.8746 51.3333 14.6665 43.1252 14.6665 33ZM31.3332 26.3333C31.3332 25.4128 32.0794 24.6667 32.9998 24.6667H33.0165C33.937 24.6667 34.6832 25.4128 34.6832 26.3333C34.6832 27.2538 33.937 28 33.0165 28H32.9998C32.0794 28 31.3332 27.2538 31.3332 26.3333ZM32.9998 31.3333C33.9203 31.3333 34.6665 32.0795 34.6665 33V39.6667C34.6665 40.5871 33.9203 41.3333 32.9998 41.3333C32.0794 41.3333 31.3332 40.5871 31.3332 39.6667V33C31.3332 32.0795 32.0794 31.3333 32.9998 31.3333Z" fill="white"/>
</svg>
